<svg width="256" height="160" viewBox="0 0 256 160" fill="none" xmlns="http://www.w3.org/2000/svg">
<rect width="256" height="160" fill="#668784"/>
<path d="M152.5 43.3586H97L107.021 74.1501H142.479L152.5 43.3586Z" stroke="#003732"/>
<path d="M109.332 43.964L118.578 27.9622" stroke="#003732"/>
<path d="M140.161 43.964L130.914 27.9622" stroke="#003732"/>
<rect x="68.5" y="117.341" width="113" height="16.9756" fill="#668784" stroke="#003732"/>
<rect x="58.5" y="109.352" width="133" height="16.9756" fill="#668784" stroke="#003732"/>
<path d="M67 106.356C68.3801 106.356 69.5 105.239 69.5 103.859C69.5 102.479 68.3801 101.362 67 101.362C65.6199 101.362 64.5 102.479 64.5 103.859C64.5 105.239 65.6199 106.356 67 106.356Z" stroke="#003732"/>
<rect x="48.5" y="95.371" width="153" height="22.9674" fill="#99AFAD" stroke="#003732"/>
<path d="M179.199 106.673L184.384 111.718L194.575 101.547" stroke="#003732"/>
<path d="M58 109.352C59.3801 109.352 60.5 108.235 60.5 106.855C60.5 105.475 59.3801 104.357 58 104.357C56.6199 104.357 55.5 105.475 55.5 106.855C55.5 108.235 56.6199 109.352 58 109.352Z" stroke="#003732"/>
</svg>
