<svg xmlns="http://www.w3.org/2000/svg" width="120" height="22" viewBox="0 0 120 22" fill="none">
    <g clip-path="url(#clip0_1_1854)">
      <path d="M17.6804 2.82928L16.1005 4.45795C15.9576 4.43809 15.8905 4.33453 15.8147 4.26217C14.8095 3.35882 13.5853 2.73016 12.262 2.43772C9.75775 1.90003 7.47066 2.41502 5.45357 3.98269C3.79754 5.23902 2.70685 7.09293 2.41793 9.14252C2.0929 11.1535 2.54021 13.2123 3.67124 14.9112C4.80227 16.6101 6.53453 17.8252 8.52492 18.3159C11.2691 18.9798 13.7262 18.3301 15.8676 16.5056C15.9633 16.4247 16.0547 16.3396 16.1533 16.2517C16.1861 16.2573 16.2176 16.2688 16.2462 16.2857C16.7519 16.7922 17.2561 17.3015 17.7718 17.8236C17.7307 17.8794 17.6853 17.932 17.6361 17.9811C16.2196 19.2996 14.4626 20.2023 12.5605 20.5886C11.6428 20.7821 10.7019 20.8447 9.76632 20.7745C6.92211 20.5589 4.54073 19.3998 2.63649 17.2944C1.3234 15.8556 0.458073 14.0698 0.145124 12.153C-0.304947 9.53452 0.269769 6.8442 1.75163 4.63275C3.23349 2.42129 5.51042 0.855966 8.11636 0.257166C11.5877 -0.457862 14.6791 0.318166 17.3904 2.58526L17.6804 2.82928Z" fill="#003732"/>
      <path d="M52.7575 16.9979C53.235 17.514 53.6847 18.0548 54.1046 18.618C54.0482 18.725 53.9657 18.8162 53.8646 18.8833C53.2772 19.3907 52.6091 19.7977 51.8875 20.0878C51.0659 20.4249 50.2001 20.6437 49.3162 20.7376C48.7367 20.8025 48.1528 20.8201 47.5705 20.7901C46.3443 20.7481 45.1442 20.4278 44.062 19.8537C43.2602 19.435 42.5527 18.8585 41.9824 18.1595C41.4122 17.4605 40.9911 16.6535 40.7449 15.7877C40.2771 14.2922 40.2771 12.6909 40.7449 11.1954C41.5221 8.71547 43.2034 7.12653 45.7234 6.4498C47.2103 6.04076 48.7858 6.07729 50.2519 6.55479C52.6918 7.34359 54.2318 8.99921 54.906 11.4451C55.1492 12.3219 55.2243 13.2362 55.1274 14.1406C55.1274 14.1959 55.1117 14.2498 55.1003 14.3208C55.0232 14.3307 54.9574 14.3435 54.8932 14.3463C54.7789 14.3463 54.6646 14.3463 54.5503 14.3463H43.1692C43.0256 14.3326 42.8808 14.3426 42.7406 14.3761C42.7363 14.4309 42.7363 14.4859 42.7406 14.5407C43.1235 16.5865 44.312 17.9229 46.3319 18.496C48.2633 19.0451 50.6304 18.672 52.3032 17.3526L52.7575 16.9979ZM42.7877 12.458C42.8649 12.4705 42.9426 12.479 43.0206 12.4836C45.5634 12.5318 52.5132 12.5048 52.8289 12.4453C52.8244 12.2317 52.7863 12.0201 52.7161 11.8182C52.2647 10.2377 51.279 9.13683 49.7161 8.57218C48.9035 8.29012 48.0374 8.19314 47.1819 8.28844C46.4042 8.35362 45.6529 8.60006 44.9891 9.00773C43.7763 9.76106 43.0849 10.8677 42.7906 12.2381C42.7834 12.3084 42.7824 12.3791 42.7877 12.4495V12.458Z" fill="#003732"/>
      <path d="M100.219 14.3028C100.094 14.3509 99.9584 14.3665 99.8252 14.3482H88.2726C88.1353 14.3342 87.9965 14.3442 87.8627 14.378C87.8576 14.436 87.8576 14.4944 87.8627 14.5525C88.2512 16.5968 89.444 17.9318 91.4626 18.5007C93.3654 19.0384 95.6968 18.6781 97.351 17.4098C97.5224 17.2778 97.6896 17.1402 97.8739 16.9927C98.1201 17.2401 98.3483 17.5046 98.5567 17.7843C98.7852 18.051 99.0038 18.3262 99.2324 18.6043C99.1569 18.723 99.0601 18.8269 98.9467 18.9107C98.3902 19.3817 97.7637 19.7646 97.0896 20.0457C96.2374 20.4052 95.3361 20.6371 94.4153 20.7338C93.8358 20.7976 93.252 20.8147 92.6697 20.7849C91.432 20.7423 90.2212 20.415 89.1326 19.8287C88.3436 19.4102 87.6473 18.8385 87.0851 18.1476C86.5229 17.4567 86.1062 16.6606 85.8598 15.8066C85.3715 14.2444 85.391 12.5691 85.9156 11.0185C86.6627 8.79253 88.1755 7.29722 90.4212 6.56658C92.028 6.03185 93.7658 6.02737 95.3753 6.55381C97.831 7.34403 99.3667 9.01952 100.032 11.4824C100.264 12.3511 100.335 13.2542 100.244 14.1481C100.238 14.1978 100.228 14.2418 100.219 14.3028ZM97.9424 12.44C97.9406 12.2365 97.9049 12.0347 97.8367 11.8427C97.3681 10.18 96.3253 9.05357 94.6611 8.51447C93.884 8.27492 93.065 8.19953 92.2568 8.29315C91.5489 8.35623 90.8631 8.57115 90.2469 8.92305C88.9498 9.67071 88.2098 10.8071 87.9041 12.2428C87.8976 12.3098 87.8976 12.3773 87.9041 12.4443C87.9365 12.4588 87.9705 12.4693 88.0055 12.4755C91.2835 12.4755 94.5625 12.4755 97.8424 12.4755C97.8773 12.4684 97.9109 12.4565 97.9424 12.44Z" fill="#003732"/>
      <path d="M70.3784 21.9988C70.3055 21.8711 70.2569 21.7945 70.2169 21.715C67.7018 16.6663 65.1866 11.6171 62.6714 6.56749C62.6714 6.55189 62.6714 6.52635 62.6885 6.48237C62.7342 6.48237 62.7871 6.46677 62.8414 6.46393C63.6033 6.43591 64.3663 6.44727 65.127 6.49798C65.7185 7.68118 66.297 8.88708 66.8856 10.0887C67.4741 11.2904 68.0598 12.5005 68.6484 13.6993C69.237 14.8981 69.8184 16.1111 70.4355 17.3497C70.6698 16.9127 70.8469 16.5126 71.0383 16.1182C71.2298 15.7238 71.4212 15.3209 71.6098 14.9208L72.1983 13.6937L72.7697 12.4949L73.3411 11.2989C73.5316 10.9007 73.7221 10.5011 73.9126 10.1001L74.504 8.87289C74.6945 8.47471 74.8849 8.07558 75.0754 7.6755C75.2668 7.27684 75.4582 6.88103 75.6468 6.49798C76.4555 6.44681 77.2666 6.44681 78.0753 6.49798C78.091 6.60438 78.0196 6.68524 77.9782 6.77179C77.4363 7.86041 76.8944 8.94808 76.3525 10.0348L70.5712 21.6115C70.5226 21.7264 70.4641 21.8356 70.3784 21.9988Z" fill="#003732"/>
      <path d="M112.922 20.4857C112.181 20.5345 111.438 20.5407 110.696 20.5042C110.681 20.4435 110.669 20.3819 110.662 20.3197C110.662 20.2403 110.662 20.1608 110.662 20.0814V6.50151C110.72 6.48187 110.78 6.46808 110.842 6.46037C111.482 6.46037 112.122 6.46037 112.762 6.46037C112.804 6.46388 112.846 6.47052 112.887 6.48023C112.941 6.58472 112.959 6.70389 112.937 6.8193C112.937 7.59013 112.937 8.36096 112.937 9.13179V9.46945C113.057 9.4964 113.057 9.40418 113.08 9.35311C113.594 8.34216 114.396 7.50349 115.386 6.94131C116.374 6.35382 117.525 6.09487 118.671 6.20216C119.059 6.23217 119.443 6.28858 119.823 6.37099C119.866 6.38092 119.907 6.39794 119.966 6.41639C119.994 6.7888 120.001 7.16253 119.987 7.53575C119.987 7.90887 119.987 8.28199 119.987 8.67071C119.886 8.65227 119.81 8.64376 119.736 8.62531C119.092 8.46469 118.43 8.39167 117.767 8.40826C117.229 8.41928 116.697 8.5121 116.187 8.68349C115.226 9.01195 114.412 9.66458 113.886 10.5278C113.463 11.2175 113.184 11.9839 113.063 12.7821C112.976 13.3197 112.934 13.8635 112.939 14.408C112.939 16.3128 112.939 18.2181 112.939 20.1239C112.942 20.2516 112.933 20.3708 112.922 20.4857Z" fill="#003732"/>
      <path d="M30.2334 20.5012C29.4844 20.5411 28.7338 20.5411 27.9848 20.5012C27.9848 20.4416 27.9677 20.3778 27.9648 20.3125C27.9648 20.2217 27.9648 20.1309 27.9648 20.0401V0.745741C27.9648 0.60387 27.9648 0.453485 27.9648 0.300265C28.2277 0.21798 28.4791 0.269056 28.7263 0.259125C28.9734 0.249195 29.2062 0.259125 29.4405 0.259125C29.6748 0.259125 29.9391 0.247772 30.2048 0.273309C30.2148 0.355594 30.2276 0.415187 30.2305 0.484704C30.2305 0.575501 30.2305 0.666296 30.2305 0.757093C30.2305 7.18856 30.2305 13.62 30.2305 20.0515C30.2391 20.192 30.2362 20.3367 30.2334 20.5012Z" fill="#003732"/>
    </g>
    <defs>
      <clipPath id="clip0_1_1854">
        <rect width="120" height="21.9985" fill="white"/>
      </clipPath>
    </defs>
  </svg>